# xmcd
#
# Track frame offsets:
#	150
#	15405
#	28795
#	50421
#	73890
#	90898
#	110616
#	126713
#	147262
#	168555
#	184656
#	201046
#	217017
#	231251
#	247779
#	266845
#	288583
#	307777
#	322249
#
# Disc length: 4453 seconds
#
# Revision: 0
# Processed by: cddbd v1.5.1PL0 Copyright (c) Steve Scherf et al.
# Submitted via: audiograbber 1.83.01
#
DISCID=1e116313
DTITLE=Michael Holloway - Riding The Blues
DYEAR=2005
DGENRE=Blues
TTITLE0=Blues Don't Fade Away
TTITLE1=Hopelessly In Love
TTITLE2=Sure Could Play The Blues
TTITLE3=Flood Of '93
TTITLE4=Red Thunderbird
TTITLE5=King Of the Blues
TTITLE6=Riding the Train
TTITLE7=Blues Travels Fast
TTITLE8=My Kind Of Woman
TTITLE9=I'm In Love With That Girl
TTITLE10=No More Mustang Sally
TTITLE11=Designated Fool
TTITLE12=Good Day For Having The Blues
TTITLE13=Sun Come Up This Morning
TTITLE14=Baby What You Trying To Prove
TTITLE15=She'll Drive You Out Of Your Mind
TTITLE16=Ten Most Wanted
TTITLE17=Blues Hideaway
TTITLE18=Www.Too Much Dot Com
EXTD=
EXTT0=
EXTT1=
EXTT2=
EXTT3=
EXTT4=
EXTT5=
EXTT6=
EXTT7=
EXTT8=
EXTT9=
EXTT10=
EXTT11=
EXTT12=
EXTT13=
EXTT14=
EXTT15=
EXTT16=
EXTT17=
EXTT18=
PLAYORDER=
